<svg width="17" height="17" viewBox="0 0 17 17" fill="none" xmlns="http://www.w3.org/2000/svg">
<g clip-path="url(#clip0_1_120)">
<path d="M14.727 8.28316L8.95966 3.52541C8.69282 3.30517 8.30743 3.30517 8.04049 3.52541L2.27314 8.28316C2.10674 8.42038 2.01044 8.62463 2.01044 8.84024V16.0188C2.01044 16.4177 2.33371 16.741 2.73268 16.741H14.2673C14.6662 16.741 14.9895 16.4177 14.9895 16.0188V8.84024C14.9897 8.62463 14.8934 8.42038 14.727 8.28316ZM9.26377 15.2965H7.73647V11.2978H9.26368V15.2965H9.26377ZM13.5452 15.2965H10.7083V10.5756C10.7083 10.1766 10.385 9.85331 9.98602 9.85331H7.01423C6.61526 9.85331 6.29199 10.1766 6.29199 10.5756V15.2965H3.45502V9.18076L8.50012 5.01881L13.5452 9.18076V15.2965Z" fill="#1D1D1B"/>
<path d="M16.7292 6.83422C15.1205 5.54554 13.6036 4.3133 11.9566 2.95712C11.4646 2.51501 10.9474 2.0964 10.4471 1.69137C9.95719 1.29481 9.45056 0.88467 8.98322 0.464036C8.70839 0.21674 8.2916 0.21674 8.01686 0.464036C7.54943 0.88467 7.04289 1.29481 6.55302 1.69137C6.05275 2.0963 5.53562 2.51501 5.04354 2.95712C3.39663 4.3134 1.87973 5.54554 0.270956 6.83422C-0.0403787 7.08353 -0.0906468 7.53816 0.158768 7.8494C0.408086 8.16064 0.86281 8.211 1.17395 7.96159C2.79197 6.66569 4.31715 5.42661 5.97398 4.06215C5.98216 4.05551 5.99015 4.04857 5.99805 4.04145C6.46549 3.62081 6.97202 3.21068 7.46189 2.81412C7.80462 2.53678 8.15515 2.25298 8.50009 1.95966C8.84503 2.25298 9.19566 2.53678 9.53829 2.81412C10.0282 3.21068 10.5348 3.62081 11.0021 4.04145C11.01 4.04857 11.018 4.05551 11.0262 4.06215C12.6829 5.42661 14.2082 6.66569 15.8262 7.96159C15.9595 8.06829 16.1189 8.1201 16.2773 8.1201C16.489 8.1201 16.6988 8.02746 16.8414 7.8493C17.0908 7.53816 17.0406 7.08353 16.7292 6.83422Z" fill="#1D1D1B"/>
</g>
<defs>
<clipPath id="clip0_1_120">
<rect width="17" height="17" fill="white"/>
</clipPath>
</defs>
</svg>
