<svg width="17" height="17" viewBox="0 0 17 17" fill="none" xmlns="http://www.w3.org/2000/svg">
<g clip-path="url(#clip0_1_75)">
<path d="M8.5 17C13.1944 17 17 13.1944 17 8.5C17 3.80558 13.1944 0 8.5 0C3.80558 0 0 3.80558 0 8.5C0 13.1944 3.80558 17 8.5 17Z" fill="#D22215"/>
<path d="M12.7784 5.65579C12.5235 5.73359 12.2577 5.80042 11.9915 5.867C10.1027 6.26766 7.58413 5.18012 6.4966 6.95453C5.58959 8.36547 5.30321 10.131 4.27142 11.3926L9.78258 16.9037C13.4505 16.3486 16.3493 13.4494 16.9039 9.78128L12.7784 5.65579Z" fill="#A81411"/>
<path d="M11.3438 5.05794H5.65616C4.54027 5.05794 3.63568 5.96256 3.63568 7.07841V9.92166C3.63568 11.0376 4.5403 11.9421 5.65616 11.9421H11.3438C12.4597 11.9421 13.3643 11.0375 13.3643 9.92166V7.07841C13.3643 5.96256 12.4596 5.05794 11.3438 5.05794ZM9.97731 8.63836L7.31708 9.90712C7.24616 9.94096 7.16424 9.88932 7.16424 9.8108V7.19393C7.16424 7.11424 7.24831 7.06261 7.3193 7.09864L9.97954 8.44672C10.0588 8.48679 10.0573 8.60025 9.97731 8.63836Z" fill="white"/>
<path d="M11.3438 5.05794H8.44275V7.66787L9.97962 8.44665C10.0588 8.48676 10.0574 8.60018 9.97733 8.63833L8.44275 9.37026V11.9421H11.3438C12.4597 11.9421 13.3643 11.0375 13.3643 9.92166V7.07841C13.3643 5.96256 12.4597 5.05794 11.3438 5.05794Z" fill="#D1D1D1"/>
</g>
<defs>
<clipPath id="clip0_1_75">
<rect width="17" height="17" fill="white"/>
</clipPath>
</defs>
</svg>
